<svg version="1.1" xmlns="http://www.w3.org/2000/svg" viewBox="0 0 2014.8377030603956 979.2592277737524" width="2014.8377030603956" height="979.2592277737524">
  <!-- svg-source:excalidraw -->
  
  <defs>
    <style>
      @font-face {
        font-family: "Virgil";
        src: url("https://excalidraw.com/Virgil.woff2");
      }
      @font-face {
        font-family: "Cascadia";
        src: url("https://excalidraw.com/Cascadia.woff2");
      }
    </style>
  </defs>
  <rect x="0" y="0" width="2014.8377030603956" height="979.2592277737524" fill="#ffffff"></rect><g stroke-linecap="round" transform="translate(10 492.2592277737524) rotate(0 91 78.5)"><path d="M0.69 -0.38 C39.61 1.68, 80.77 2, 180.4 -0.68 M-0.76 0.72 C71.99 0.99, 142.18 0.71, 182.43 -0.8 M181.39 -1.11 C182.75 63.83, 179.32 127.46, 180.16 155.66 M181.95 -0.94 C180.43 47.39, 180.47 94.22, 182.75 156.7 M182.59 155.31 C118.02 160.25, 54.37 156.71, -0.95 157.03 M182.27 156.58 C139.11 158.27, 97.13 158.75, -0.93 157.14 M1.79 157.04 C2.46 100.43, 0.37 42.12, 1.7 -0.2 M-0.23 156.03 C-0.29 106.78, 0.61 57.82, -0.06 0.63" stroke="#000000" stroke-width="1" fill="none"></path></g><g transform="translate(44.5 558.2592277737524) rotate(0 57.5 12.5)"><text x="57.5" y="18" font-family="Virgil, Segoe UI Emoji" font-size="20px" fill="#000000" text-anchor="middle" style="white-space: pre;" direction="ltr">React code</text></g><g stroke-linecap="round"><g transform="translate(204 576.2987014222903) rotate(0 109.27941738338365 1.727812968486262)"><path d="M-0.07 0.75 C36.09 1.22, 181.22 1.86, 217.8 2.18 M-1.56 0.1 C34.9 0.76, 183.35 2.73, 220.12 3.36" stroke="#000000" stroke-width="1" fill="none"></path></g><g transform="translate(204 576.2987014222903) rotate(0 109.27941738338365 1.727812968486262)"><path d="M193.03 11.96 C201.24 10.95, 212.61 7.29, 219.05 4.78 M192.67 13.02 C201.53 9.42, 210.37 6.2, 220.92 3.72" stroke="#000000" stroke-width="1" fill="none"></path></g><g transform="translate(204 576.2987014222903) rotate(0 109.27941738338365 1.727812968486262)"><path d="M193.34 -8.56 C201.33 -1.93, 212.58 2.05, 219.05 4.78 M192.98 -7.5 C201.72 -4.54, 210.47 -1.2, 220.92 3.72" stroke="#000000" stroke-width="1" fill="none"></path></g></g><g transform="translate(1117.0459770114942 491.70750363582135) rotate(0 39.988505747126396 7.040229885057499)"><text x="39.98850574712644" y="10.080459770114944" font-family="Virgil, Segoe UI Emoji" font-size="11.264367816091955px" fill="#000000" text-anchor="middle" style="white-space: pre;" direction="ltr">docker session</text></g><g stroke-linecap="round" transform="translate(1082.689655172414 483.2592277737524) rotate(0 72.65517241379314 57.166666666666686)"><path d="M1.94 0.77 C31.83 -1.83, 66.74 0.03, 146.82 0.52 M-0.11 -0.9 C37.56 1.06, 76.56 2.24, 146.21 0.76 M145.6 1.47 C146.81 43.19, 146.09 82.53, 147.18 113.64 M144.34 0.14 C146.71 26.44, 146.1 52.92, 144.42 114.48 M143.35 112.33 C88.53 111.17, 30.33 113.87, 1.2 113.76 M145.87 114.05 C88.08 114.16, 28.4 114.13, 0.01 114.67 M-1.6 113.87 C-1.8 69.93, 0.93 28.71, 1.85 0.23 M-0.63 114.12 C0.52 73.82, -0.41 32.23, -0.93 0.32" stroke="#000000" stroke-width="1" fill="none"></path></g><g stroke-linecap="round"><g transform="translate(1081 511.98336570478693) rotate(0 73.86511823784565 -0.10754095505922123)"><path d="M0.46 -0.77 C24.76 -0.91, 121.72 0.03, 146.2 0.31 M-0.76 1.44 C23.89 1.42, 123.91 -1.25, 148.49 -1.65" stroke="#000000" stroke-width="1" fill="none"></path></g></g><g transform="translate(1098.5013152911608 537.3080150070338) rotate(0 56.28029390424149 12.12937368625893)"><text x="56.280293904241475" y="17.25874737251787" font-family="Virgil, Segoe UI Emoji" font-size="19.406997898014293px" fill="#000000" text-anchor="middle" style="white-space: pre;" direction="ltr">npm run dev</text></g><g stroke-linecap="round" transform="translate(442 516.2592277737524) rotate(0 108 63)"><path d="M0.22 -1.3 C73.16 -0.43, 148.33 1.38, 217.18 -1.61 M-0.41 -0.8 C80.72 -0.22, 161 0.65, 216.12 -0.76 M216.7 0.23 C213.98 43.97, 213.99 85.21, 215.83 126.92 M216.6 0.48 C215.78 33.59, 216.6 66.78, 215.74 126.32 M215.39 125.78 C158.39 126.03, 101.06 127.14, -0.45 125.09 M215.97 126.42 C165.62 124.54, 113.51 125.15, 0.77 126.55 M1.82 125.79 C-0.04 82.26, 2.69 38.16, -0.9 1.99 M-0.52 126.97 C-1.38 79.96, -1.47 32.57, 0.91 0.45" stroke="#000000" stroke-width="1" fill="none"></path></g><g transform="translate(502.25653320312495 555.3595695706274) rotate(0 42.743466796875055 27.399658203125)"><text x="42.74346679687501" y="38.79931640625001" font-family="Virgil, Segoe UI Emoji" font-size="43.83945312499999px" fill="#000000" text-anchor="middle" style="white-space: pre;" direction="ltr">API</text></g><g stroke-linecap="round"><g transform="translate(687.1612903225805 524.0645752702399) rotate(0 173.17572718017834 -20.240380532253823)"><path d="M0.81 1.06 C58.68 -5.98, 288.9 -34.46, 346.57 -41.54 M-0.22 0.56 C57.62 -6.38, 288.21 -33.5, 346.03 -40.31" stroke="#000000" stroke-width="1" fill="none"></path></g><g transform="translate(687.1612903225805 524.0645752702399) rotate(0 173.17572718017834 -20.240380532253823)"><path d="M320.99 -25.55 C324.72 -28.55, 331.55 -34.72, 345.99 -38.54 M318.31 -27 C328.64 -31.72, 339.08 -36.31, 345.36 -39.42" stroke="#000000" stroke-width="1" fill="none"></path></g><g transform="translate(687.1612903225805 524.0645752702399) rotate(0 173.17572718017834 -20.240380532253823)"><path d="M318.59 -45.93 C323.02 -43.96, 330.44 -45.14, 345.99 -38.54 M315.91 -47.38 C327.19 -44.47, 338.52 -41.43, 345.36 -39.42" stroke="#000000" stroke-width="1" fill="none"></path></g></g><g stroke-linecap="round" transform="translate(1048 344.2592277737524) rotate(0 208 169.5)"><path d="M0.14 0.57 C125.38 0.16, 249.19 0.19, 416.2 -0.2 M-0.51 -0.2 C104.01 0.29, 208.74 0.74, 416.27 0.38 M414.76 0.77 C417.61 94.87, 418.02 190.45, 414.72 338.66 M415.38 0.02 C413.86 79.97, 413.56 160.57, 416.62 339.53 M416.39 339.55 C257.51 336.91, 96.68 338.02, 0.27 338.78 M416.47 338.62 C322.99 338.55, 229.69 337.82, -0.07 339.41 M-0.83 337.92 C-0.59 205.7, -2.25 72.24, -0.4 0.44 M-0.12 338.88 C-0.34 219.04, -0.31 98.87, 0.12 -0.33" stroke="#000000" stroke-width="1" fill="none"></path></g><g transform="translate(1062 378.3703388848635) rotate(0 193 40)"><text x="0" y="14" font-family="Virgil, Segoe UI Emoji" font-size="15.744444444444479px" fill="#000000" text-anchor="start" style="white-space: pre;" direction="ltr">if playground_id exists</text><text x="0" y="34" font-family="Virgil, Segoe UI Emoji" font-size="15.744444444444479px" fill="#000000" text-anchor="start" style="white-space: pre;" direction="ltr">    run container</text><text x="0" y="54" font-family="Virgil, Segoe UI Emoji" font-size="15.744444444444479px" fill="#000000" text-anchor="start" style="white-space: pre;" direction="ltr">else</text><text x="0" y="74" font-family="Virgil, Segoe UI Emoji" font-size="15.744444444444479px" fill="#000000" text-anchor="start" style="white-space: pre;" direction="ltr">    create container with the Dockerfile provided</text></g><g transform="translate(1142.4482858554961 220.58094027080148) rotate(0 119.77999999999997 26.5)"><text x="0" y="37.00000000000001" font-family="Virgil, Segoe UI Emoji" font-size="42.40000000000001px" fill="#000000" text-anchor="start" style="white-space: pre;" direction="ltr">EC2 server</text></g><g transform="translate(238.2068565780155 546.5926577102152) rotate(0 59.787383237469385 29.597714473994756)"><text x="0" y="20.597714473994756" font-family="Virgil, Segoe UI Emoji" font-size="23.678171579195805px" fill="#000000" text-anchor="start" style="white-space: pre;" direction="ltr">Save code</text><text x="0" y="50.19542894798951" font-family="Virgil, Segoe UI Emoji" font-size="23.678171579195805px" fill="#000000" text-anchor="start" style="white-space: pre;" direction="ltr">Run code</text></g><g stroke-linecap="round"><g transform="translate(1036 537.2592277737524) rotate(0 -174.11231631079693 25.429361523482953)"><path d="M-0.52 0.47 C-58.84 8.96, -290.82 41.52, -349.13 50.11 M1.4 -0.33 C-57.06 8.36, -290.83 42.76, -349.63 51.19" stroke="#000000" stroke-width="1" fill="none"></path></g><g transform="translate(1036 537.2592277737524) rotate(0 -174.11231631079693 25.429361523482953)"><path d="M-322.42 38.42 C-334.35 41.34, -340.72 47.67, -347.87 49.78 M-323.57 36.3 C-330.82 41.35, -336.82 43.91, -349.03 51.07" stroke="#000000" stroke-width="1" fill="none"></path></g><g transform="translate(1036 537.2592277737524) rotate(0 -174.11231631079693 25.429361523482953)"><path d="M-319.47 58.72 C-332.32 54.28, -339.76 53.25, -347.87 49.78 M-320.61 56.61 C-328.67 56.42, -335.44 53.71, -349.03 51.07" stroke="#000000" stroke-width="1" fill="none"></path></g></g><g transform="translate(560 688.2592277737524) rotate(0 166.5 12.5)"><text x="0" y="18" font-family="Virgil, Segoe UI Emoji" font-size="20px" fill="#000000" text-anchor="start" style="white-space: pre;" direction="ltr">&lt;iframe src="https://server:port"&gt;</text></g><g stroke-linecap="round"><g transform="translate(546 657.2592277737524) rotate(0 0.4448829059489299 54.0031259023026)"><path d="M-0.52 1.09 C-0.48 18.79, 0.43 88.77, 0.49 106.25 M1.41 0.62 C1.27 18.45, -0.01 89.7, -0.46 107.39" stroke="#000000" stroke-width="1" fill="none"></path></g><g transform="translate(546 657.2592277737524) rotate(0 0.4448829059489299 54.0031259023026)"><path d="M-8.31 78.99 C-8.26 87.04, -5.62 98.08, -0.36 106.99 M-10.46 78.72 C-6.93 85.86, -5.27 94.33, -0.04 107.84" stroke="#000000" stroke-width="1" fill="none"></path></g><g transform="translate(546 657.2592277737524) rotate(0 0.4448829059489299 54.0031259023026)"><path d="M12.21 79.42 C5.66 87.24, 1.72 98.15, -0.36 106.99 M10.06 79.14 C8.02 86.22, 4.12 94.57, -0.04 107.84" stroke="#000000" stroke-width="1" fill="none"></path></g></g><g stroke-linecap="round" transform="translate(371 778.2592277737524) rotate(0 176 95.5)"><path d="M-1.24 0.53 C94.17 -1.77, 186.59 -2.81, 352.54 -1.08 M-0.62 -0.35 C81.27 0.87, 162.01 0.85, 352.55 0.11 M352.51 0.94 C351.16 39.13, 353.19 76.58, 353.27 191.43 M351.81 -0.4 C352.72 58.93, 352.83 118.88, 351.24 191.1 M352.71 189.8 C218.82 193.18, 87.6 194.19, 0.32 191.03 M351.7 190.77 C214.16 190.52, 75.52 190.27, -0.58 190.45 M-0.44 191.88 C0.18 147.66, 1.55 105.71, 1.73 -0.69 M0.87 191.23 C-1.51 121.9, -1.34 52.81, 0.91 -0.71" stroke="#000000" stroke-width="1" fill="none"></path></g><g transform="translate(407 846.2592277737524) rotate(0 143.51999999999998 23)"><text x="0" y="31.999999999999986" font-family="Virgil, Segoe UI Emoji" font-size="36.79999999999999px" fill="#000000" text-anchor="start" style="white-space: pre;" direction="ltr">Browser preview</text></g><g transform="translate(1285.0459770114942 490.70750363582135) rotate(0 39.988505747126396 7.040229885057499)"><text x="39.98850574712644" y="10.080459770114944" font-family="Virgil, Segoe UI Emoji" font-size="11.264367816091955px" fill="#000000" text-anchor="middle" style="white-space: pre;" direction="ltr">docker session</text></g><g stroke-linecap="round" transform="translate(1250.689655172414 482.2592277737524) rotate(0 72.65517241379303 57.166666666666686)"><path d="M0.42 0.36 C50.51 -1.86, 102.85 -2.7, 146.8 1.26 M-0.55 -0.26 C30.66 0.6, 61.55 1.32, 145.83 -0.05 M146.98 1.75 C145.59 43.66, 145.48 88.36, 143.76 115.34 M145.76 0.21 C145.3 28.71, 145.16 60.12, 145.02 113.4 M144.56 116.09 C115.21 112.07, 85.18 113.29, 0.78 113.17 M144.46 114.72 C103.34 116.33, 60.87 116.32, 0.84 113.73 M0.94 115.43 C-0.54 80.41, 1.19 42.13, 1.25 -1.52 M0.41 113.49 C-0.12 79.92, 0.27 46.8, 0.27 0.33" stroke="#000000" stroke-width="1" fill="none"></path></g><g stroke-linecap="round"><g transform="translate(1249 510.98336570478693) rotate(0 72.69390947949603 -0.061684204274797594)"><path d="M0.22 -0.5 C24.49 -0.53, 122.22 -0.14, 146.52 0.1 M-1.13 -1.81 C22.87 -1.64, 120.39 1.55, 145.31 1.68" stroke="#000000" stroke-width="1" fill="none"></path></g></g><g transform="translate(1266.5013152911608 536.3080150070338) rotate(0 56.28029390424149 12.12937368625893)"><text x="56.280293904241475" y="17.25874737251787" font-family="Virgil, Segoe UI Emoji" font-size="19.406997898014293px" fill="#000000" text-anchor="middle" style="white-space: pre;" direction="ltr">npm run dev</text></g><g stroke-linecap="round"><g transform="translate(1146 611.2592277737524) rotate(0 -76.38214220367365 124.61428251335394)"><path d="M1.14 0.86 C-24.57 42.33, -128.35 206.62, -153.9 247.96 M0.28 0.27 C-25.08 41.92, -126.2 207.3, -151.67 248.96" stroke="#000000" stroke-width="1" fill="none"></path></g><g transform="translate(1146 611.2592277737524) rotate(0 -76.38214220367365 124.61428251335394)"><path d="M-144.28 218.05 C-149.6 230.64, -149.94 240.46, -150.47 248.18 M-145.48 220.51 C-148.52 230.2, -149.69 239.58, -152.59 249.03" stroke="#000000" stroke-width="1" fill="none"></path></g><g transform="translate(1146 611.2592277737524) rotate(0 -76.38214220367365 124.61428251335394)"><path d="M-126.77 228.75 C-137.77 238, -143.86 244.29, -150.47 248.18 M-127.97 231.21 C-137.05 237.13, -144.29 242.8, -152.59 249.03" stroke="#000000" stroke-width="1" fill="none"></path></g></g><g stroke-linecap="round" transform="translate(749 778.2592277737524) rotate(0 109 95.5)"><path d="M0.06 1.03 C76.51 -0.01, 153.11 -1.19, 217.7 -0.08 M0.36 -0.43 C84.03 -1.77, 167.26 -1.58, 217.99 -0.26 M219.04 -1.48 C217.75 57.6, 217.89 113.56, 219.02 189.66 M217.35 0.51 C218.16 39.2, 218.9 78.83, 217.81 190.27 M217.88 189.98 C175.89 191.82, 131.61 193.07, -0.8 190.21 M218.67 190.16 C160.39 192.21, 102.97 191.96, -0.43 190.37 M-0.26 190.75 C2.13 142.9, 0.91 94.48, 1.2 0.05 M0.29 191.08 C-1.86 123.51, -0.97 57.19, 0.79 0.23" stroke="#000000" stroke-width="1" fill="none"></path></g><g transform="translate(812 848.7592277737524) rotate(0 46 25)"><text x="46" y="18" font-family="Virgil, Segoe UI Emoji" font-size="20px" fill="#000000" text-anchor="middle" style="white-space: pre;" direction="ltr">Terminal </text><text x="46" y="43" font-family="Virgil, Segoe UI Emoji" font-size="20px" fill="#000000" text-anchor="middle" style="white-space: pre;" direction="ltr">session</text></g><g transform="translate(1078 757.2592277737524) rotate(0 191 12.5)"><text x="0" y="18" font-family="Virgil, Segoe UI Emoji" font-size="20px" fill="#000000" text-anchor="start" style="white-space: pre;" direction="ltr">docker exec &lt;container_id&gt; &lt;command&gt;</text></g><g stroke-linecap="round" transform="translate(438.4707056568518 62.62935309934778) rotate(0 121.5 103)"><path d="M-0.81 0.36 C65.52 0.19, 135.13 0.33, 244.11 -0.49 M0.21 0.57 C53.77 -0.79, 106.58 -1.04, 243.37 0.59 M242.91 0.65 C244.12 79.92, 242.41 161.45, 241.47 204.35 M242.4 0.42 C242.04 52.78, 241.71 104.45, 242.43 205.25 M242.73 205.59 C167.6 204.56, 88.14 205.22, 0.33 207.48 M243.62 206.25 C181.9 205.17, 118.53 205.2, -0.66 205.97 M-0.77 204.87 C0.28 155.37, 0.89 107.85, -1.55 -0.26 M0.02 205.67 C0.8 139.07, 0.61 73.02, 0.23 -0.89" stroke="#000000" stroke-width="1" fill="none"></path></g><g transform="translate(476.4707056568518 18.62935309934778) rotate(0 79.5 12.5)"><text x="0" y="18" font-family="Virgil, Segoe UI Emoji" font-size="20px" fill="#000000" text-anchor="start" style="white-space: pre;" direction="ltr">Postgres server</text></g><g stroke-linecap="round" transform="translate(456.4707056568518 84.62935309934778) rotate(0 104.5 52)"><path d="M1.42 0.72 C50.58 0.34, 98.92 3.07, 209.85 -1.2 M0.57 0.15 C45.29 0.08, 90.56 0.59, 209.19 0.43 M207.4 0.02 C209.15 27.42, 210.02 51.65, 208.72 104.16 M209.84 0.76 C208.4 23.12, 209.38 48.59, 208.95 104.71 M209.43 103.91 C136.41 105.45, 64.58 104.17, 1.24 104.04 M208.32 103.18 C128.76 105.29, 48.05 105.25, 0.25 104.8 M-0.05 104.78 C0.82 73.59, -0.83 40.22, 0.1 1.77 M-0.35 104.44 C-0.27 75.15, -1.33 44.84, -0.39 0.96" stroke="#000000" stroke-width="1" fill="none"></path></g><g stroke-linecap="round"><g transform="translate(458.4707056568518 107.62935309934778) rotate(0 102.34517978667282 0.47043025322170706)"><path d="M0.07 -0.75 C34.36 -0.93, 171.81 -0.17, 206.04 -0.03 M-1.35 1.48 C32.84 2.01, 171.25 1.49, 205.64 1.49" stroke="#000000" stroke-width="1" fill="none"></path></g></g><g stroke-linecap="round"><g transform="translate(491.4707056568518 84.62935309934778) rotate(0 0.10663564838466755 53.1752199984528)"><path d="M-0.94 1.1 C-0.6 18.39, 0.81 87.14, 1.15 104.12 M0.77 0.64 C1.12 18.1, 0.78 88.53, 0.81 105.72" stroke="#000000" stroke-width="1" fill="none"></path></g></g><g stroke-linecap="round"><g transform="translate(571.3990996688794 84.62935309934778) rotate(0 -0.05089806912883432 52.313224588520825)"><path d="M0.41 0.64 C0.5 17.92, 0.7 86.04, 0.74 103.45 M-0.84 -0.07 C-0.86 17.39, 0 87.47, 0.18 104.69" stroke="#000000" stroke-width="1" fill="none"></path></g></g><g transform="translate(493.62113404965726 91.49190722866757) rotate(0 34.313717069679 6.598791744169034)"><text x="0" y="9.197583488338068" font-family="Virgil, Segoe UI Emoji" font-size="10.286631078271123px" fill="#000000" text-anchor="start" style="white-space: pre;" direction="ltr">container_ID</text></g><g transform="translate(458.37178096425873 92.37123360086315) rotate(0 16.273231752752736 6.66935727571834)"><text x="0" y="9.338714551436702" font-family="Virgil, Segoe UI Emoji" font-size="10.670971641149375px" fill="#000000" text-anchor="start" style="white-space: pre;" direction="ltr">Sl. no.</text></g><g stroke-linecap="round"><g transform="translate(521.5935785843092 500.1123168967928) rotate(0 0.6764102373791729 -106.13430536205937)"><path d="M0.72 -1.19 C0.84 -36.66, 1.56 -177.97, 1.73 -213.07 M-0.36 0.8 C-0.48 -34.5, 0.59 -176.09, 0.81 -211.86" stroke="#000000" stroke-width="1" fill="none"></path></g><g transform="translate(521.5935785843092 500.1123168967928) rotate(0 0.6764102373791729 -106.13430536205937)"><path d="M8.9 -183.49 C6.06 -194.24, 4.34 -204.93, -0.64 -211.21 M10.28 -183.75 C9.29 -189.04, 6.27 -195.41, 0.21 -212.34" stroke="#000000" stroke-width="1" fill="none"></path></g><g transform="translate(521.5935785843092 500.1123168967928) rotate(0 0.6764102373791729 -106.13430536205937)"><path d="M-11.62 -183.63 C-6.64 -194.45, -0.53 -205.09, -0.64 -211.21 M-10.24 -183.88 C-6.91 -189.02, -5.62 -195.36, 0.21 -212.34" stroke="#000000" stroke-width="1" fill="none"></path></g></g><g stroke-linecap="round" transform="translate(1004.0578633789069 10.000000000000057) rotate(0 500.38991984074437 451.4297120951327)"><path d="M477.52 1.3 C505.71 -6.92, 538.5 1.93, 567.77 5.68 C597.04 9.44, 624.6 15.78, 653.15 23.84 C681.7 31.9, 712.4 41.94, 739.08 54.03 C765.75 66.12, 790.51 79.68, 813.19 96.39 C835.86 113.1, 855.94 134.08, 875.13 154.3 C894.32 174.53, 912.56 194.68, 928.32 217.74 C944.08 240.79, 958.83 266.88, 969.69 292.64 C980.54 318.39, 988.26 345.94, 993.45 372.28 C998.63 398.61, 1001.09 424.39, 1000.79 450.67 C1000.49 476.95, 996.71 503.44, 991.62 529.96 C986.53 556.48, 980.68 584.33, 970.25 609.8 C959.82 635.27, 944.4 659.79, 929.05 682.78 C913.71 705.78, 897.49 727.35, 878.17 747.78 C858.85 768.21, 836.74 788.8, 813.12 805.38 C789.5 821.96, 763.07 834.9, 736.44 847.25 C709.81 859.61, 681.2 870.71, 653.33 879.51 C625.46 888.31, 598.55 896.31, 569.23 900.06 C539.92 903.8, 507.53 903.52, 477.45 901.98 C447.37 900.44, 417.83 896.5, 388.74 890.83 C359.65 885.16, 329.96 878.46, 302.9 867.96 C275.85 857.46, 250.9 842.94, 226.4 827.83 C201.9 812.71, 177.65 795.78, 155.92 777.27 C134.19 758.77, 113.55 738.37, 96.01 716.8 C78.47 695.23, 63.84 672.31, 50.68 647.84 C37.52 623.37, 25.34 595.92, 17.04 569.99 C8.75 544.06, 3.34 518.87, 0.92 492.25 C-1.49 465.64, 0 437.39, 2.54 410.29 C5.09 383.18, 8.63 355.52, 16.19 329.62 C23.74 303.72, 34.72 278.98, 47.87 254.89 C61.02 230.8, 77.65 206.43, 95.08 185.07 C112.5 163.7, 131.03 145.35, 152.44 126.69 C173.84 108.03, 198.5 87.93, 223.51 73.1 C248.51 58.27, 274.73 47.69, 302.47 37.72 C330.22 27.75, 345.92 18.82, 389.95 13.28 C433.99 7.74, 523.87 2.02, 566.68 4.47 C609.49 6.92, 648.37 20.39, 646.8 27.99" stroke="#000000" stroke-width="1.5" fill="none" stroke-dasharray="8 9"></path></g><g transform="translate(1674.563759284913 410.93801061580064) rotate(0 102.24894984813182 67.26904595271827)"><text x="0" y="93.53809190543654" font-family="Virgil, Segoe UI Emoji" font-size="107.63047352434923px" fill="#000000" text-anchor="start" style="white-space: pre;" direction="ltr">VPC</text></g><g transform="translate(589.6203668050146 90.70502827165643) rotate(0 29.5 6.5)"><text x="0" y="9" font-family="Virgil, Segoe UI Emoji" font-size="10.286631078271123px" fill="#000000" text-anchor="start" style="white-space: pre;" direction="ltr">react_port</text></g><g stroke-linecap="round"><g transform="translate(567.5707233242572 292.0657369485265) rotate(0 -1.7421287221139892 102.31524109234789)"><path d="M-0.19 -0.5 C-0.67 33.94, -2.07 171.84, -2.15 206.44 M-1.74 -1.81 C-2.48 32.29, -3.44 170.04, -3.28 204.57" stroke="#000000" stroke-width="1" fill="none"></path></g><g transform="translate(567.5707233242572 292.0657369485265) rotate(0 -1.7421287221139892 102.31524109234789)"><path d="M-14.31 175.76 C-9.04 188.45, -4.23 197.32, -1.84 205.06 M-12.55 177 C-10.77 183.11, -8.63 189.99, -3.54 204.42" stroke="#000000" stroke-width="1" fill="none"></path></g><g transform="translate(567.5707233242572 292.0657369485265) rotate(0 -1.7421287221139892 102.31524109234789)"><path d="M6.21 175.81 C4.08 188.45, 1.49 197.3, -1.84 205.06 M7.97 177.05 C4.6 183.2, 1.59 190.07, -3.54 204.42" stroke="#000000" stroke-width="1" fill="none"></path></g></g><g transform="translate(1134.4022855260052 283.1945518574416) rotate(0 136.51714144503887 21.55533812290085)"><text x="0" y="30.1106762458017" font-family="Virgil, Segoe UI Emoji" font-size="33.849864311518374px" fill="#000000" text-anchor="start" style="white-space: pre;" direction="ltr">(backend server)</text></g></svg>